<svg width="36" height="44" viewBox="0 0 36 44" fill="none" xmlns="http://www.w3.org/2000/svg">
<mask id="mask0_7_6" style="mask-type:alpha" maskUnits="userSpaceOnUse" x="0" y="0" width="36" height="44">
<path d="M34 0H2C0.89543 0 0 0.89543 0 2V42C0 43.1046 0.89543 44 2 44H34C35.1046 44 36 43.1046 36 42V2C36 0.89543 35.1046 0 34 0Z" fill="white"/>
</mask>
<g mask="url(#mask0_7_6)">
<path d="M4.74861 36.597L5.7611 36.5114L7.27844 35.1596L8.11989 33.0491L9.29791 30.0944L11.5739 28.0667L14.7797 27.3881L16.1315 28.9054L16.5563 31.5208L16.137 33.7995L15.2955 35.91L14.1175 38.8647L14.8789 40.6359L16.3135 40.7186L18.0847 39.9572L21.1194 37.2536L25.5859 32.1857L30.8911 22.5602L32.3229 20.1959L32.9106 17.495L32.8223 14.0355C32.3432 13.1922 31.4186 11.4212 31.5533 11.0836C31.7215 10.6615 29.6111 9.82001 29.3572 9.22963C29.1542 8.75733 27.4721 8.64108 26.6564 8.642L23.6189 8.89856L21.8478 9.65998L20.9181 8.31092L19.4807 5.78109L17.5385 4.51756L15.2598 4.09821L13.2348 4.26925L9.69249 5.7921L7.50198 8.8323L4.47554 18.8771L2.71814 31.8739L4.74861 36.597Z" fill="white"/>
<path d="M16.0045 41.593C15.6717 41.6129 15.3385 41.561 15.0276 41.4408L15.0164 41.4359C14.9868 41.4264 14.9579 41.4153 14.929 41.4036L14.9045 41.3935L14.2321 40.8821C14.2178 40.864 14.2044 40.8467 14.1907 40.8282C14.1769 40.8096 14.1594 40.7841 14.1419 40.758C14.1142 40.7165 14.0892 40.677 14.066 40.6354C14.0598 40.6248 14.0466 40.5997 14.0333 40.5768C14.0113 40.5342 13.9929 40.4947 13.9745 40.4552L13.9662 40.4366C13.9562 40.414 13.9461 40.3914 13.9373 40.3679C13.9181 40.3189 13.8984 40.2637 13.8806 40.2065C13.8753 40.1922 13.8698 40.175 13.8649 40.1562C13.8476 40.0991 13.8288 40.0285 13.8127 39.9531C13.8071 39.9254 13.8026 39.8967 13.7977 39.8729C13.7927 39.8491 13.7829 39.7949 13.7756 39.7443L13.7672 39.6925C13.7647 39.6723 13.7627 39.6526 13.7618 39.6331C13.7421 39.4702 13.7323 39.3062 13.7322 39.1421C13.7358 38.2714 13.9429 37.4137 14.3368 36.6372C14.4953 36.3195 14.6424 35.994 14.773 35.6719C16.1389 32.3139 15.9568 28.7989 14.3757 27.9964L14.3653 27.9954C12.6585 27.5043 10.065 29.9205 8.701 33.2715C8.56892 33.5968 8.44761 33.9314 8.34009 34.2668C8.07878 35.1001 7.62704 35.8611 7.02067 36.4897C6.90585 36.6088 6.78397 36.7209 6.65568 36.8254C6.6374 36.8425 6.62119 36.8554 6.6104 36.8638L6.56981 36.8937C6.53503 36.9209 6.49203 36.9529 6.45039 36.9822C6.44141 36.9891 6.41998 37.0042 6.39922 37.0183C6.33275 37.0636 6.26851 37.1029 6.2058 37.138C6.19637 37.1438 6.18003 37.1522 6.16309 37.1611C6.11742 37.1861 6.06499 37.2122 6.01333 37.2361C5.99358 37.2453 5.97159 37.2549 5.95025 37.2634L5.93001 37.272C5.88447 37.2898 5.8453 37.3049 5.80764 37.3158C5.76999 37.3266 5.75025 37.3358 5.72291 37.3432C5.69557 37.3505 5.64656 37.3642 5.60341 37.3745C5.56026 37.3848 5.53143 37.3903 5.50601 37.3951C5.44961 37.4047 5.39062 37.4124 5.33189 37.4173L5.27602 37.4214C5.21044 37.4246 5.14473 37.4241 5.07922 37.4198L5.02424 37.4145C4.96926 37.4092 4.91454 37.4012 4.86009 37.3905L4.81058 37.3802C4.79904 37.3791 4.78836 37.3747 4.77708 37.3709C4.74236 37.3626 4.69857 37.3506 4.65454 37.3353C4.63516 37.329 4.60776 37.3197 4.58045 37.3094C4.55315 37.299 4.51852 37.284 4.49032 37.2713L4.4786 37.2663C2.61161 36.5241 1.92606 33.2495 2.4406 27.532C2.83966 23.1034 3.9529 17.5185 5.42265 12.592L5.56645 12.0049C5.58646 11.9291 5.60544 11.8582 5.62486 11.7885L5.65148 11.6901C5.66608 11.636 5.67814 11.5911 5.69054 11.5485C5.72798 11.4122 5.7728 11.2684 5.81263 11.1246L5.85491 10.99C5.88741 10.8821 5.92157 10.7744 5.95572 10.6667C5.97536 10.6064 5.98849 10.5678 6.00112 10.5285C6.03693 10.4209 6.06998 10.3248 6.10227 10.2308L6.12072 10.177C6.13728 10.1315 6.1496 10.0955 6.16362 10.0591C6.27043 9.76025 6.38712 9.46238 6.50565 9.18022L6.51065 9.16849L6.50351 9.16781L6.69958 8.7477L6.706 8.73278L6.74164 8.63854C8.48518 4.43444 13.3576 2.39148 17.6086 4.07403C18.6495 4.4826 19.5969 5.09777 20.3936 5.88243C21.1902 6.66709 21.8198 7.60498 22.2441 8.63955C23.2714 8.18128 24.38 7.93306 25.5047 7.90949C26.6293 7.88593 27.7473 8.08749 28.7929 8.50233C33.0407 10.184 35.1311 14.9783 33.4524 19.1892L33.404 19.3C33.4032 19.3088 33.3974 19.3176 33.3937 19.3267L33.3867 19.3477C33.3427 19.4711 33.2993 19.5884 33.253 19.7072L33.2318 19.7606C33.1194 20.0484 32.994 20.3443 32.8586 20.6409C32.8451 20.6713 32.8261 20.7133 32.806 20.7557L32.7725 20.8274C32.7349 20.9071 32.6972 20.9867 32.6592 21.0663C32.6331 21.1193 32.6153 21.1547 32.5972 21.1929C32.5376 21.3115 32.4869 21.4126 32.4344 21.5142L32.3756 21.63C32.3029 21.7696 32.232 21.9026 32.1594 22.0349C32.1405 22.0703 32.117 22.1124 32.0925 22.1544L32.059 22.2145C32.0175 22.2888 31.9765 22.3631 31.9338 22.4383L31.6273 22.9638C27.9137 30.056 20.389 41.3742 16.0045 41.593ZM15.3227 39.8284L15.3359 39.858C15.3415 39.8696 15.3478 39.8841 15.3548 39.8981L15.3647 39.9162C15.3708 39.9275 15.3775 39.9383 15.3849 39.9487L15.3944 39.9662C15.3992 39.973 15.4045 39.9795 15.4103 39.9855L15.4268 40.0043L15.4501 40.022L15.4568 40.0271L15.5763 40.0768C15.6953 40.1219 15.8226 40.1405 15.9495 40.1314C18.6434 40.0006 25.4918 31.4905 30.3172 22.2804L30.3273 22.2625L30.6421 21.7206C30.6754 21.6622 30.709 21.6011 30.7431 21.54L30.7927 21.4509C30.8167 21.4083 30.8336 21.3772 30.8505 21.3455C30.9217 21.2153 30.9858 21.0905 31.0532 20.9665L31.1093 20.8554C31.1543 20.7676 31.1974 20.6824 31.2406 20.5966L31.2584 20.5606C31.2757 20.5245 31.2992 20.4763 31.3239 20.4271L31.4581 20.1436C31.4729 20.1106 31.4867 20.082 31.4996 20.0522C31.6286 19.7699 31.744 19.4974 31.8455 19.2369L31.8672 19.1835C31.907 19.0808 31.9461 18.9741 31.9846 18.8674L32.0789 18.6351C33.4507 15.191 31.7306 11.2538 28.2355 9.87045C27.2604 9.48127 26.2094 9.3195 25.1624 9.39743C24.1154 9.47537 23.1 9.79095 22.1933 10.3202L21.3645 10.8008L21.1022 9.88798C20.8153 8.88484 20.3004 7.96161 19.5976 7.19039C18.8949 6.41917 18.0233 5.82085 17.0511 5.44216C13.5571 4.05891 9.55318 5.7344 8.12492 9.17693L8.03463 9.39577C7.99108 9.49147 7.94509 9.59526 7.9001 9.70026L7.87867 9.75036C7.77041 10.0063 7.66147 10.2811 7.56164 10.565C7.54807 10.6026 7.53813 10.631 7.5282 10.6595C7.48781 10.7744 7.45182 10.878 7.41749 10.9818C7.40698 11.0163 7.39004 11.0657 7.37361 11.1158C7.34336 11.2116 7.31067 11.3156 7.27843 11.4207L7.23777 11.5499C7.20023 11.6756 7.1607 11.8105 7.12331 11.9462C7.11091 11.9889 7.10145 12.024 7.09199 12.0592L7.06223 12.1673C7.04427 12.2333 7.02631 12.2992 7.00935 12.3664L6.85207 12.99C5.36778 17.9701 4.26852 23.5884 3.9112 28.0216C3.48345 33.3363 4.20952 35.5778 5.03115 35.9033L5.15478 35.9506L5.19767 35.9547L5.22002 35.953L5.2504 35.9487L5.31824 35.9296C5.33657 35.9236 5.3539 35.9164 5.37124 35.9092L5.39143 35.9011C5.41062 35.8919 5.42982 35.8826 5.44972 35.8717L5.48415 35.854C5.50235 35.8435 5.53009 35.8262 5.55868 35.8056L5.58909 35.7835C5.61643 35.7645 5.63911 35.7478 5.66189 35.73L5.67684 35.7187C5.68588 35.7112 5.69497 35.7032 5.70516 35.6953C5.79234 35.6251 5.87499 35.5494 5.95263 35.4688C6.39945 35.0033 6.73208 34.4405 6.92431 33.8246C7.04245 33.4536 7.17714 33.0837 7.32313 32.7231C9.04364 28.493 12.2472 25.8521 14.779 26.5813C14.8087 26.5897 14.8432 26.6008 14.8782 26.6114L14.9946 26.6591C15.0206 26.6716 15.0477 26.6841 15.0708 26.6975C17.4106 27.891 17.8766 31.9824 16.1533 36.2189C16.0081 36.5762 15.8456 36.9357 15.6711 37.2863C15.3787 37.8594 15.2243 38.4929 15.2202 39.1362C15.2202 39.2482 15.2271 39.36 15.2409 39.4711L15.2488 39.5273C15.252 39.5515 15.2562 39.5774 15.2611 39.6017L15.2712 39.6582C15.2762 39.6814 15.2847 39.715 15.2937 39.743L15.2968 39.7511C15.3074 39.7854 15.3152 39.8078 15.3227 39.8284Z" fill="#343434"/>
<path d="M15.4775 28.0306C15.1397 28.0472 14.8854 28.0545 14.7309 28.0569C14.6752 28.0599 14.6347 28.0593 14.6347 28.0593L14.3619 28.0582L14.1534 27.8829C14.1534 27.8829 14.121 27.856 14.0654 27.8046C12.9441 26.8069 3.17424 17.7636 6.66815 8.80231C6.68435 8.76059 6.70256 8.71517 6.72143 8.6687L6.72725 8.65428C6.73741 8.62918 6.749 8.60088 6.76076 8.57648C8.49756 4.40225 13.3607 2.3745 17.608 4.05559C18.6489 4.46416 19.5962 5.07932 20.3929 5.86398C21.1896 6.64864 21.8191 7.58654 22.2435 8.6211C23.2708 8.16283 24.3794 7.91461 25.5041 7.89105C26.6287 7.86748 27.7467 8.06904 28.7923 8.48388C32.9246 10.1196 35.0167 14.6988 33.5855 18.8218L33.5967 18.8267L33.4357 19.2219C33.4357 19.2219 33.4357 19.2219 33.4354 19.2252L33.4348 19.2313C33.416 19.2777 33.4001 19.3161 33.385 19.3519L33.2672 19.638L33.2595 19.6373C29.9702 26.7667 18.8487 27.8659 15.4859 28.0353L15.4775 28.0306ZM14.9174 26.5823C15.8953 26.5504 19.1912 26.3729 22.6944 25.4085C27.5749 24.0648 30.7067 21.8432 32.002 18.8052C32.0177 18.7684 32.0321 18.7343 32.046 18.6984L32.0672 18.645C33.4491 15.1769 31.731 11.2299 28.2377 9.84562C27.2626 9.45644 26.2116 9.29467 25.1646 9.3726C24.1176 9.45053 23.1022 9.76612 22.1955 10.2954L21.3667 10.7759L21.1044 9.86315C20.8175 8.86001 20.3026 7.93677 19.5998 7.16556C18.8971 6.39434 18.0255 5.79602 17.0533 5.41732C13.5593 4.03408 9.55541 5.70957 8.12715 9.1521L8.10212 9.21073C8.08619 9.24971 8.07162 9.28604 8.05815 9.32248C5.03486 17.0754 13.4103 25.2037 14.9174 26.5823Z" fill="#343434"/>
<path d="M17.6691 22.5321L15.8425 21.8039L9.51638 37.671L11.343 38.3992L17.6691 22.5321Z" fill="#343434"/>
<path d="M16.5521 22.7936C18.4083 23.5336 20.4757 22.6145 21.1699 20.7407C21.864 18.8668 20.922 16.7479 19.0658 16.0078C17.2096 15.2678 15.1422 16.1869 14.448 18.0607C13.7539 19.9345 14.6959 22.0535 16.5521 22.7936Z" fill="#F1DDBE"/>
<path d="M11.9363 38.6252L8.93005 37.4266C7.90403 37.0175 6.74065 37.5177 6.33157 38.5437L2.76276 47.4949C2.35369 48.5209 2.85383 49.6843 3.87986 50.0934L6.88609 51.2919C7.91212 51.701 9.0755 51.2009 9.48457 50.1749L13.0534 41.2237C13.4625 40.1976 12.9623 39.0343 11.9363 38.6252Z" fill="#343434"/>
<path d="M16.8257 12.1168C17.2348 11.0908 18.3982 10.5907 19.4242 10.9997L22.4304 12.1983C23.4565 12.6074 23.9566 13.7708 23.5475 14.7968L21.113 20.9029L14.3912 18.2229L16.8257 12.1168Z" fill="#F1DDBE"/>
</g>
</svg>
